<?xml version="1.0" encoding="iso-8859-1"?>
<!-- Generator: Adobe Illustrator 19.0.0, SVG Export Plug-In . SVG Version: 6.00 Build 0)  -->
<svg version="1.1" id="Layer_1" xmlns="http://www.w3.org/2000/svg" xmlns:xlink="http://www.w3.org/1999/xlink" x="0px" y="0px"
	 viewBox="0 0 512 512" style="enable-background:new 0 0 512 512;" xml:space="preserve">
<path style="fill:#5C6670;" d="M95.664,472.917c-48.324,0-87.636-39.312-87.636-87.636c0-48.326,39.312-87.638,87.636-87.638
	h320.672c48.323,0,87.637,39.312,87.637,87.638c0,48.323-39.314,87.636-87.637,87.636H95.664z"/>
<path style="fill:#333E48;" d="M416.336,441.742c31.183,0,56.461-25.28,56.461-56.461c0-31.184-25.278-56.462-56.461-56.462H95.663
	c-31.182,0-56.461,25.278-56.461,56.462c0,31.181,25.279,56.461,56.461,56.461L416.336,441.742L416.336,441.742z"/>
<path style="opacity:0.2;enable-background:new    ;" d="M416.335,297.643H95.664c-26.416,0-50.12,11.763-66.2,30.308
	c15.135,45.588,43.65,85.061,80.881,113.791h291.31c37.231-28.731,65.747-68.203,80.881-113.791
	C466.455,309.407,442.75,297.643,416.335,297.643z"/>
<path style="fill:#FFC843;" d="M256,39.083c-117.983,0-213.626,95.643-213.626,213.624c0,82.024,46.235,153.236,114.056,189.034
	h199.144c67.82-35.798,114.053-107.011,114.053-189.034C469.625,134.727,373.983,39.083,256,39.083z"/>
<circle style="fill:#D49000;" cx="256.003" cy="252.707" r="173.362"/>
<path style="fill:#FFC843;" d="M258.673,124.501c8.567,0,15.363,6.795,15.363,15.361v4.135c15.952,2.363,30.131,7.091,42.835,14.178
	c5.614,3.254,10.636,8.866,10.636,17.729c0,11.224-8.863,19.789-20.09,19.789c-3.543,0-7.088-0.883-10.339-2.657
	c-8.27-4.43-16.54-7.977-24.518-10.046v44.904c44.903,12.11,64.106,30.43,64.106,63.511c0,33.089-25.404,54.357-62.628,58.494
	v15.656c0,8.568-6.796,15.36-15.363,15.36c-8.566,0-15.361-6.792-15.361-15.36v-15.951c-20.973-2.66-40.767-10.044-58.195-20.68
	c-6.203-3.838-10.044-9.749-10.044-17.725c0-11.521,8.862-20.087,20.383-20.087c3.839,0,7.975,1.478,11.521,3.841
	c12.406,7.976,24.225,13.587,37.813,16.541v-46.97c-42.539-11.521-63.514-27.77-63.514-62.924c0-32.492,24.816-54.356,62.036-58.193
	v-3.546C243.311,131.295,250.107,124.501,258.673,124.501z M244.789,220.212v-39.881c-14.18,2.069-20.384,9.159-20.384,18.611
	C224.406,208.1,228.541,214.305,244.789,220.212z M272.557,271.91v41.06c13.883-2.064,20.974-8.566,20.974-19.202
	C293.53,284.021,288.509,277.521,272.557,271.91z"/>
<path style="fill:#1E252B;" d="M470.991,306.797c4.369-17.442,6.662-35.58,6.662-54.09c0-122.22-99.432-221.652-221.653-221.652
	S34.346,130.488,34.346,252.708c0,18.511,2.293,36.653,6.664,54.098C15.567,324.608,0,354.126,0,385.281
	c0,52.748,42.914,95.663,95.664,95.663h320.672c52.749,0,95.665-42.915,95.665-95.664C512,353.643,496.779,324.732,470.991,306.797z
	 M256,47.111c113.367,0,205.598,92.23,205.598,205.597c0,75.829-41.352,145-108.049,181.007h-85.898
	c94.61-6.028,169.74-84.901,169.74-181.007c0-100.019-81.371-181.391-181.391-181.391S74.609,152.688,74.609,252.708
	c0,96.106,75.13,174.979,169.74,181.007h-85.896C91.755,397.705,50.401,328.535,50.401,252.708
	C50.401,139.341,142.632,47.111,256,47.111z M453.266,353.944c7.389,8.669,11.504,19.656,11.504,31.336
	c0,26.706-21.728,48.434-48.434,48.434H383.97C413.508,412.855,437.132,385.399,453.266,353.944z M256,418.044
	c-91.166,0-165.336-74.17-165.336-165.337S164.833,87.372,256,87.372s165.336,74.169,165.336,165.336S347.167,418.044,256,418.044z
	 M128.033,433.715H95.664c-26.707,0-48.434-21.728-48.434-48.434c0-11.681,4.114-22.67,11.504-31.335
	C74.868,385.399,98.493,412.855,128.033,433.715z M416.335,464.889H95.664c-43.897,0-79.608-35.712-79.608-79.608
	c0-24.49,10.953-46.999,29.751-62.039c1.709,5.104,3.605,10.135,5.674,15.084c-12.965,12.16-20.305,28.94-20.305,46.955
	c0,35.56,28.929,64.489,64.489,64.489h320.673c35.56,0,64.489-28.929,64.489-64.489c0-18.015-7.339-34.795-20.305-46.955
	c2.07-4.95,3.965-9.981,5.674-15.087c18.797,15.046,29.751,37.565,29.751,62.042C495.945,429.177,460.231,464.889,416.335,464.889z"
	/>
<g>
</g>
<g>
</g>
<g>
</g>
<g>
</g>
<g>
</g>
<g>
</g>
<g>
</g>
<g>
</g>
<g>
</g>
<g>
</g>
<g>
</g>
<g>
</g>
<g>
</g>
<g>
</g>
<g>
</g>
</svg>
